<?xml version="1.0" encoding="UTF-8" standalone="no"?>
<svg
   width="64"
   height="64"
   version="1.1"
   viewBox="0 0 64 64"
   id="svg1"
   sodipodi:docname="puk010.svg"
   inkscape:version="1.3.2 (091e20e, 2023-11-25, custom)"
   inkscape:export-filename="puk010.png"
   inkscape:export-xdpi="96"
   inkscape:export-ydpi="96"
   xmlns:inkscape="http://www.inkscape.org/namespaces/inkscape"
   xmlns:sodipodi="http://sodipodi.sourceforge.net/DTD/sodipodi-0.dtd"
   xmlns="http://www.w3.org/2000/svg"
   xmlns:svg="http://www.w3.org/2000/svg">
  <defs
     id="defs1" />
  <sodipodi:namedview
     id="namedview1"
     pagecolor="#ffffff"
     bordercolor="#000000"
     borderopacity="0.25"
     inkscape:showpageshadow="2"
     inkscape:pageopacity="0.0"
     inkscape:pagecheckerboard="0"
     inkscape:deskcolor="#d1d1d1"
     showgrid="true"
     inkscape:current-layer="svg1"
     showguides="true">
    <inkscape:grid
       id="grid1"
       units="px"
       originx="-92"
       originy="-92"
       spacingx="0.5"
       spacingy="0.5"
       empcolor="#0099e5"
       empopacity="0.30196078"
       color="#0099e5"
       opacity="0.14901961"
       empspacing="2"
       dotted="false"
       gridanglex="30"
       gridanglez="30"
       visible="true" />
  </sodipodi:namedview>
  <circle
     style="fill:#ffffff;stroke-width:0"
     id="circle9"
     cx="32"
     cy="32"
     r="32" />
  <g
     id="g1">
    <path
       d="m 23.428573,29.142857 8.571429,8.571428 22.857142,-22.857142"
       fill="none"
       stroke="#00d455"
       stroke-width="4.57143"
       id="path1627"
       style="stroke:#00d400;stroke-linecap:round;stroke-linejoin:round;stroke-opacity:1" />
    <path
       d="m 32.000002,12 c -11.020303,0 -20,8.979697 -20,20 0,11.020302 8.979697,20 20,20 11.020302,0 20,-8.979698 20,-20 0,-1.887694 -0.266858,-3.713357 -0.758929,-5.446428 l -3.632812,3.632811 c 0.0678,0.59486 0.106026,1.200062 0.106026,1.813617 0,8.704134 -7.010151,15.714285 -15.714285,15.714285 -8.704134,0 -15.714286,-7.010151 -15.714286,-15.714285 0,-8.704134 7.010152,-15.714286 15.714286,-15.714286 3.746497,0 7.176768,1.302989 9.871651,3.476563 l 3.024554,-3.024554 C 41.410301,13.787214 36.909219,12 32.000002,12 Z"
       fill="#00d455"
       stroke-dashoffset="1.49998"
       id="path1629"
       style="fill:#00d400;fill-opacity:1;stroke-width:2.85715;stroke-linecap:round;stroke-linejoin:round" />
  </g>
</svg>
